<mxfile host="Electron" modified="2024-06-14T19:16:17.852Z" agent="Mozilla/5.0 (Macintosh; Intel Mac OS X 10_15_7) AppleWebKit/537.36 (KHTML, like Gecko) draw.io/24.1.0 Chrome/120.0.6099.109 Electron/28.1.0 Safari/537.36" etag="Sjv6gMyJ6CQTPbnx5x5P" version="24.1.0" type="device">
  <diagram name="Page-1" id="SrmNu-lgWO2U0JBS9L5D">
    <mxGraphModel dx="2074" dy="1214" grid="1" gridSize="10" guides="1" tooltips="1" connect="1" arrows="1" fold="1" page="1" pageScale="1" pageWidth="827" pageHeight="1169" math="0" shadow="0">
      <root>
        <mxCell id="0" />
        <mxCell id="1" parent="0" />
        <mxCell id="oFhaDypi4Xt9AcvSC3YJ-8" value="" style="edgeStyle=orthogonalEdgeStyle;rounded=0;orthogonalLoop=1;jettySize=auto;html=1;" edge="1" parent="1" source="oFhaDypi4Xt9AcvSC3YJ-2" target="oFhaDypi4Xt9AcvSC3YJ-3">
          <mxGeometry relative="1" as="geometry" />
        </mxCell>
        <mxCell id="oFhaDypi4Xt9AcvSC3YJ-2" value="Routes" style="ellipse;whiteSpace=wrap;html=1;" vertex="1" parent="1">
          <mxGeometry x="354" y="110" width="120" height="80" as="geometry" />
        </mxCell>
        <mxCell id="oFhaDypi4Xt9AcvSC3YJ-9" style="edgeStyle=orthogonalEdgeStyle;rounded=0;orthogonalLoop=1;jettySize=auto;html=1;entryX=0.5;entryY=0;entryDx=0;entryDy=0;" edge="1" parent="1" source="oFhaDypi4Xt9AcvSC3YJ-3" target="oFhaDypi4Xt9AcvSC3YJ-4">
          <mxGeometry relative="1" as="geometry" />
        </mxCell>
        <mxCell id="oFhaDypi4Xt9AcvSC3YJ-10" style="edgeStyle=orthogonalEdgeStyle;rounded=0;orthogonalLoop=1;jettySize=auto;html=1;entryX=0.5;entryY=0;entryDx=0;entryDy=0;" edge="1" parent="1" source="oFhaDypi4Xt9AcvSC3YJ-3" target="oFhaDypi4Xt9AcvSC3YJ-5">
          <mxGeometry relative="1" as="geometry" />
        </mxCell>
        <mxCell id="oFhaDypi4Xt9AcvSC3YJ-11" style="edgeStyle=orthogonalEdgeStyle;rounded=0;orthogonalLoop=1;jettySize=auto;html=1;entryX=0.5;entryY=0;entryDx=0;entryDy=0;" edge="1" parent="1" source="oFhaDypi4Xt9AcvSC3YJ-3" target="oFhaDypi4Xt9AcvSC3YJ-6">
          <mxGeometry relative="1" as="geometry" />
        </mxCell>
        <mxCell id="oFhaDypi4Xt9AcvSC3YJ-12" style="edgeStyle=orthogonalEdgeStyle;rounded=0;orthogonalLoop=1;jettySize=auto;html=1;entryX=0.5;entryY=0;entryDx=0;entryDy=0;" edge="1" parent="1" source="oFhaDypi4Xt9AcvSC3YJ-3" target="oFhaDypi4Xt9AcvSC3YJ-7">
          <mxGeometry relative="1" as="geometry" />
        </mxCell>
        <mxCell id="oFhaDypi4Xt9AcvSC3YJ-3" value="Auth" style="rounded=1;whiteSpace=wrap;html=1;" vertex="1" parent="1">
          <mxGeometry x="354" y="220" width="120" height="60" as="geometry" />
        </mxCell>
        <mxCell id="oFhaDypi4Xt9AcvSC3YJ-27" value="" style="edgeStyle=orthogonalEdgeStyle;rounded=0;orthogonalLoop=1;jettySize=auto;html=1;" edge="1" parent="1" source="oFhaDypi4Xt9AcvSC3YJ-4" target="oFhaDypi4Xt9AcvSC3YJ-14">
          <mxGeometry relative="1" as="geometry" />
        </mxCell>
        <mxCell id="oFhaDypi4Xt9AcvSC3YJ-4" value="UserRoutes" style="rounded=1;whiteSpace=wrap;html=1;" vertex="1" parent="1">
          <mxGeometry x="120" y="320" width="120" height="60" as="geometry" />
        </mxCell>
        <mxCell id="oFhaDypi4Xt9AcvSC3YJ-28" value="" style="edgeStyle=orthogonalEdgeStyle;rounded=0;orthogonalLoop=1;jettySize=auto;html=1;" edge="1" parent="1" source="oFhaDypi4Xt9AcvSC3YJ-5" target="oFhaDypi4Xt9AcvSC3YJ-15">
          <mxGeometry relative="1" as="geometry" />
        </mxCell>
        <mxCell id="oFhaDypi4Xt9AcvSC3YJ-5" value="ProductRoutes" style="rounded=1;whiteSpace=wrap;html=1;" vertex="1" parent="1">
          <mxGeometry x="280" y="320" width="120" height="60" as="geometry" />
        </mxCell>
        <mxCell id="oFhaDypi4Xt9AcvSC3YJ-29" value="" style="edgeStyle=orthogonalEdgeStyle;rounded=0;orthogonalLoop=1;jettySize=auto;html=1;" edge="1" parent="1" source="oFhaDypi4Xt9AcvSC3YJ-6" target="oFhaDypi4Xt9AcvSC3YJ-16">
          <mxGeometry relative="1" as="geometry" />
        </mxCell>
        <mxCell id="oFhaDypi4Xt9AcvSC3YJ-6" value="CartRoutes" style="rounded=1;whiteSpace=wrap;html=1;" vertex="1" parent="1">
          <mxGeometry x="440" y="320" width="120" height="60" as="geometry" />
        </mxCell>
        <mxCell id="oFhaDypi4Xt9AcvSC3YJ-30" value="" style="edgeStyle=orthogonalEdgeStyle;rounded=0;orthogonalLoop=1;jettySize=auto;html=1;" edge="1" parent="1" source="oFhaDypi4Xt9AcvSC3YJ-7" target="oFhaDypi4Xt9AcvSC3YJ-17">
          <mxGeometry relative="1" as="geometry" />
        </mxCell>
        <mxCell id="oFhaDypi4Xt9AcvSC3YJ-7" value="ReviewRoutes" style="rounded=1;whiteSpace=wrap;html=1;" vertex="1" parent="1">
          <mxGeometry x="600" y="320" width="120" height="60" as="geometry" />
        </mxCell>
        <mxCell id="oFhaDypi4Xt9AcvSC3YJ-31" value="" style="edgeStyle=orthogonalEdgeStyle;rounded=0;orthogonalLoop=1;jettySize=auto;html=1;" edge="1" parent="1" source="oFhaDypi4Xt9AcvSC3YJ-14" target="oFhaDypi4Xt9AcvSC3YJ-18">
          <mxGeometry relative="1" as="geometry" />
        </mxCell>
        <mxCell id="oFhaDypi4Xt9AcvSC3YJ-14" value="UserController" style="rounded=1;whiteSpace=wrap;html=1;" vertex="1" parent="1">
          <mxGeometry x="120" y="420" width="120" height="60" as="geometry" />
        </mxCell>
        <mxCell id="oFhaDypi4Xt9AcvSC3YJ-32" value="" style="edgeStyle=orthogonalEdgeStyle;rounded=0;orthogonalLoop=1;jettySize=auto;html=1;" edge="1" parent="1" source="oFhaDypi4Xt9AcvSC3YJ-15" target="oFhaDypi4Xt9AcvSC3YJ-19">
          <mxGeometry relative="1" as="geometry" />
        </mxCell>
        <mxCell id="oFhaDypi4Xt9AcvSC3YJ-15" value="ProductController" style="rounded=1;whiteSpace=wrap;html=1;" vertex="1" parent="1">
          <mxGeometry x="280" y="420" width="120" height="60" as="geometry" />
        </mxCell>
        <mxCell id="oFhaDypi4Xt9AcvSC3YJ-33" value="" style="edgeStyle=orthogonalEdgeStyle;rounded=0;orthogonalLoop=1;jettySize=auto;html=1;" edge="1" parent="1" source="oFhaDypi4Xt9AcvSC3YJ-16" target="oFhaDypi4Xt9AcvSC3YJ-20">
          <mxGeometry relative="1" as="geometry" />
        </mxCell>
        <mxCell id="oFhaDypi4Xt9AcvSC3YJ-16" value="CartController" style="rounded=1;whiteSpace=wrap;html=1;" vertex="1" parent="1">
          <mxGeometry x="440" y="420" width="120" height="60" as="geometry" />
        </mxCell>
        <mxCell id="oFhaDypi4Xt9AcvSC3YJ-34" value="" style="edgeStyle=orthogonalEdgeStyle;rounded=0;orthogonalLoop=1;jettySize=auto;html=1;" edge="1" parent="1" source="oFhaDypi4Xt9AcvSC3YJ-17" target="oFhaDypi4Xt9AcvSC3YJ-21">
          <mxGeometry relative="1" as="geometry" />
        </mxCell>
        <mxCell id="oFhaDypi4Xt9AcvSC3YJ-17" value="ReviewController" style="rounded=1;whiteSpace=wrap;html=1;" vertex="1" parent="1">
          <mxGeometry x="600" y="420" width="120" height="60" as="geometry" />
        </mxCell>
        <mxCell id="oFhaDypi4Xt9AcvSC3YJ-23" style="edgeStyle=orthogonalEdgeStyle;rounded=0;orthogonalLoop=1;jettySize=auto;html=1;entryX=0;entryY=0.5;entryDx=0;entryDy=0;" edge="1" parent="1" source="oFhaDypi4Xt9AcvSC3YJ-18" target="oFhaDypi4Xt9AcvSC3YJ-22">
          <mxGeometry relative="1" as="geometry">
            <Array as="points">
              <mxPoint x="180" y="650" />
            </Array>
          </mxGeometry>
        </mxCell>
        <mxCell id="oFhaDypi4Xt9AcvSC3YJ-18" value="UserDAO" style="rounded=1;whiteSpace=wrap;html=1;" vertex="1" parent="1">
          <mxGeometry x="120" y="520" width="120" height="60" as="geometry" />
        </mxCell>
        <mxCell id="oFhaDypi4Xt9AcvSC3YJ-24" style="edgeStyle=orthogonalEdgeStyle;rounded=0;orthogonalLoop=1;jettySize=auto;html=1;entryX=0.5;entryY=0;entryDx=0;entryDy=0;" edge="1" parent="1" source="oFhaDypi4Xt9AcvSC3YJ-19" target="oFhaDypi4Xt9AcvSC3YJ-22">
          <mxGeometry relative="1" as="geometry" />
        </mxCell>
        <mxCell id="oFhaDypi4Xt9AcvSC3YJ-19" value="ProductDAO" style="rounded=1;whiteSpace=wrap;html=1;" vertex="1" parent="1">
          <mxGeometry x="280" y="520" width="120" height="60" as="geometry" />
        </mxCell>
        <mxCell id="oFhaDypi4Xt9AcvSC3YJ-25" style="edgeStyle=orthogonalEdgeStyle;rounded=0;orthogonalLoop=1;jettySize=auto;html=1;entryX=0.5;entryY=0;entryDx=0;entryDy=0;" edge="1" parent="1" source="oFhaDypi4Xt9AcvSC3YJ-20" target="oFhaDypi4Xt9AcvSC3YJ-22">
          <mxGeometry relative="1" as="geometry" />
        </mxCell>
        <mxCell id="oFhaDypi4Xt9AcvSC3YJ-20" value="CartDAO" style="rounded=1;whiteSpace=wrap;html=1;" vertex="1" parent="1">
          <mxGeometry x="440" y="520" width="120" height="60" as="geometry" />
        </mxCell>
        <mxCell id="oFhaDypi4Xt9AcvSC3YJ-26" style="edgeStyle=orthogonalEdgeStyle;rounded=0;orthogonalLoop=1;jettySize=auto;html=1;entryX=1;entryY=0.5;entryDx=0;entryDy=0;" edge="1" parent="1" source="oFhaDypi4Xt9AcvSC3YJ-21" target="oFhaDypi4Xt9AcvSC3YJ-22">
          <mxGeometry relative="1" as="geometry">
            <Array as="points">
              <mxPoint x="660" y="650" />
            </Array>
          </mxGeometry>
        </mxCell>
        <mxCell id="oFhaDypi4Xt9AcvSC3YJ-21" value="ReviewDAO" style="rounded=1;whiteSpace=wrap;html=1;" vertex="1" parent="1">
          <mxGeometry x="600" y="520" width="120" height="60" as="geometry" />
        </mxCell>
        <mxCell id="oFhaDypi4Xt9AcvSC3YJ-22" value="Database" style="rounded=1;whiteSpace=wrap;html=1;" vertex="1" parent="1">
          <mxGeometry x="354" y="620" width="120" height="60" as="geometry" />
        </mxCell>
      </root>
    </mxGraphModel>
  </diagram>
</mxfile>
